RobotoSerifMicro-SuperWideItalic.ufo
<glyph name="n" format="2">
  <advance width="912"/>
  <unicode hex="006E"/>
  <guideline x="903" y="14" angle="81" identifier="iMxd0Gytsz"/>
  <anchor x="448" y="572" name="top"/>
  <anchor x="456" y="0" name="bottom"/>
  <outline>
    <contour>
      <point x="111" y="0.0" type="line"/>
      <point x="184" y="446.0" type="line" smooth="yes"/>
      <point x="186" y="459"/>
      <point x="175" y="464"/>
      <point x="137" y="469.0" type="curve" smooth="yes"/>
      <point x="115" y="472.0" type="line"/>
      <point x="131" y="572.0" type="line"/>
      <point x="430" y="572.0" type="line"/>
      <point x="435" y="416.0" type="line"/>
      <point x="440" y="404.0" type="line"/>
      <point x="374" y="0.0" type="line"/>
    </contour>
    <contour>
      <point x="853" y="252.0" type="line" smooth="yes"/>
      <point x="841" y="181"/>
      <point x="839.0" y="160"/>
      <point x="839" y="147.0" type="curve" smooth="yes"/>
      <point x="839.0" y="126.0"/>
      <point x="851" y="118.0"/>
      <point x="875" y="118.0" type="curve" smooth="yes"/>
      <point x="891" y="118.0"/>
      <point x="882" y="118.0"/>
      <point x="905" y="118.0" type="curve"/>
      <point x="886" y="0.0" type="line"/>
      <point x="816" y="0.0"/>
      <point x="783" y="0"/>
      <point x="720" y="0.0" type="curve" smooth="yes"/>
      <point x="626" y="0.0"/>
      <point x="576" y="34"/>
      <point x="576" y="115.0" type="curve" smooth="yes"/>
      <point x="576.0" y="145.0"/>
      <point x="582" y="176"/>
      <point x="594" y="247.0" type="curve" smooth="yes"/>
      <point x="614" y="364.0" type="line" smooth="yes"/>
      <point x="616" y="376"/>
      <point x="617" y="385"/>
      <point x="617" y="393.0" type="curve" smooth="yes"/>
      <point x="617.0" y="422.0"/>
      <point x="598" y="439"/>
      <point x="562" y="439.0" type="curve" smooth="yes"/>
      <point x="511" y="439"/>
      <point x="467" y="404.0"/>
      <point x="399" y="305.0" type="curve"/>
      <point x="394" y="396.0" type="line"/>
      <point x="484" y="525.0"/>
      <point x="572" y="585.0"/>
      <point x="702" y="585.0" type="curve" smooth="yes"/>
      <point x="821.0" y="585.0"/>
      <point x="880.0" y="524"/>
      <point x="880" y="446.0" type="curve" smooth="yes"/>
      <point x="880" y="430"/>
      <point x="879" y="410"/>
      <point x="875" y="387.0" type="curve" smooth="yes"/>
    </contour>
  </outline>
</glyph>
<glyph name="currency" format="2">
  <advance width="687"/>
  <unicode hex="00A4"/>
  <outline>
    <contour>
      <point x="45" y="91" type="line"/>
      <point x="229" y="210" type="line"/>
      <point x="132" y="302" type="line"/>
      <point x="-42" y="190" type="line"/>
    </contour>
    <contour>
      <point x="66" y="584" type="line"/>
      <point x="185" y="449" type="line"/>
      <point x="323" y="533" type="line"/>
      <point x="203" y="669" type="line"/>
    </contour>
    <contour>
      <point x="348" y="276" type="curve" smooth="yes"/>
      <point x="274" y="276"/>
      <point x="244" y="300"/>
      <point x="244" y="348" type="curve" smooth="yes"/>
      <point x="244" y="406"/>
      <point x="278" y="471"/>
      <point x="369" y="471" type="curve" smooth="yes"/>
      <point x="443" y="471"/>
      <point x="472" y="447"/>
      <point x="472" y="399" type="curve" smooth="yes"/>
      <point x="472" y="341"/>
      <point x="439" y="276"/>
    </contour>
    <contour>
      <point x="317" y="147" type="curve" smooth="yes"/>
      <point x="462" y="147"/>
      <point x="635" y="268"/>
      <point x="635" y="386" type="curve" smooth="yes"/>
      <point x="635" y="486"/>
      <point x="534" y="601"/>
      <point x="399" y="601" type="curve" smooth="yes"/>
      <point x="254" y="601"/>
      <point x="81" y="479"/>
      <point x="81" y="361" type="curve" smooth="yes"/>
      <point x="81" y="262"/>
      <point x="182" y="147"/>
    </contour>
    <contour>
      <point x="514" y="78" type="line"/>
      <point x="651" y="162" type="line"/>
      <point x="531" y="297" type="line"/>
      <point x="393" y="213" type="line"/>
    </contour>
    <contour>
      <point x="758" y="557" type="line"/>
      <point x="671" y="655" type="line"/>
      <point x="487" y="536" type="line"/>
      <point x="585" y="444" type="line"/>
    </contour>
  </outline>
</glyph>
<glyph name="brokenbar" format="2">
  <advance width="458"/>
  <unicode hex="00A6"/>
  <outline>
    <contour>
      <point x="154" y="780" type="line"/>
      <point x="154" y="404" type="line"/>
      <point x="304" y="404" type="line"/>
      <point x="304" y="780" type="line"/>
    </contour>
    <contour>
      <point x="154" y="218" type="line"/>
      <point x="154" y="-158" type="line"/>
      <point x="304" y="-158" type="line"/>
      <point x="304" y="218" type="line"/>
    </contour>
  </outline>
</glyph>
<glyph name="itilde" format="2">
  <advance width="481"/>
  <unicode hex="0129"/>
  <outline>
    <contour>
      <point x="406" y="615" type="curve" smooth="yes"/>
      <point x="498" y="615"/>
      <point x="558" y="675"/>
      <point x="613" y="851" type="curve"/>
      <point x="510" y="876" type="line"/>
      <point x="478" y="798"/>
      <point x="466" y="766"/>
      <point x="432" y="766" type="curve" smooth="yes"/>
      <point x="368" y="766"/>
      <point x="388" y="868"/>
      <point x="243" y="868" type="curve" smooth="yes"/>
      <point x="141" y="868"/>
      <point x="96" y="805"/>
      <point x="36" y="637" type="curve"/>
      <point x="141" y="611" type="line"/>
      <point x="172" y="687"/>
      <point x="179" y="720"/>
      <point x="212" y="720" type="curve" smooth="yes"/>
      <point x="278" y="720"/>
      <point x="252" y="615"/>
    </contour>
    <component base="dotlessi"/>
  </outline>
</glyph>
<glyph name="dotlessi" format="2">
  <advance width="481"/>
  <unicode hex="0131"/>
  <anchor x="255" y="572" name="top"/>
  <outline>
    <contour>
      <point x="353" y="252" type="curve" smooth="yes"/>
      <point x="450" y="572" type="line"/>
      <point x="118" y="572" type="line"/>
      <point x="91" y="476" type="line"/>
      <point x="101" y="474" type="line" smooth="yes"/>
      <point x="135" y="469"/>
      <point x="155" y="464"/>
      <point x="153" y="455" type="curve" smooth="yes"/>
      <point x="89" y="247" type="line" smooth="yes"/>
      <point x="60" y="161"/>
      <point x="48" y="127"/>
      <point x="48" y="96" type="curve" smooth="yes"/>
      <point x="48" y="34"/>
      <point x="99" y="0"/>
      <point x="185" y="0" type="curve" smooth="yes"/>
      <point x="248" y="0"/>
      <point x="310" y="0"/>
      <point x="373" y="0" type="curve"/>
      <point x="404" y="118" type="line"/>
      <point x="387" y="118"/>
      <point x="371" y="118"/>
      <point x="353" y="118" type="curve" smooth="yes"/>
      <point x="329" y="118"/>
      <point x="318" y="125"/>
      <point x="318" y="143" type="curve" smooth="yes"/>
      <point x="318" y="157"/>
      <point x="329" y="182"/>
    </contour>
  </outline>
</glyph>
<glyph name="lslash" format="2">
  <advance width="556"/>
  <unicode hex="0142"/>
  <outline>
    <contour>
      <point x="1" y="191" type="line"/>
      <point x="581" y="462" type="line"/>
      <point x="614" y="580" type="line"/>
      <point x="34" y="309" type="line"/>
    </contour>
    <component base="l" xOffset="29"/>
  </outline>
</glyph>
<glyph name="Eng" format="2">
  <advance width="991"/>
  <unicode hex="014A"/>
  <outline>
    <contour>
      <point x="478" y="-250" type="curve" smooth="yes"/>
      <point x="381" y="-250"/>
      <point x="321" y="-236"/>
      <point x="269" y="-218" type="curve"/>
      <point x="302" y="-111" type="line"/>
      <point x="327" y="-118"/>
      <point x="394" y="-141"/>
      <point x="479" y="-141" type="curve" smooth="yes"/>
      <point x="567" y="-141"/>
      <point x="609" y="-111"/>
      <point x="630" y="-49" type="curve" smooth="yes"/>
      <point x="665" y="73" type="line"/>
      <point x="657" y="-116" type="line"/>
      <point x="310" y="666" type="line"/>
      <point x="341" y="647" type="line"/>
      <point x="175" y="111" type="line" smooth="yes"/>
      <point x="173" y="104"/>
      <point x="208" y="101"/>
      <point x="232" y="101" type="curve" smooth="yes"/>
      <point x="247" y="101" type="line"/>
      <point x="218" y="0" type="line"/>
      <point x="-53" y="0" type="line"/>
      <point x="-24" y="101" type="line"/>
      <point x="-11" y="101" type="line" smooth="yes"/>
      <point x="25" y="101"/>
      <point x="54" y="108"/>
      <point x="63" y="137" type="curve" smooth="yes"/>
      <point x="200" y="574" type="line" smooth="yes"/>
      <point x="208" y="603"/>
      <point x="183" y="610"/>
      <point x="148" y="610" type="curve" smooth="yes"/>
      <point x="134" y="610" type="line"/>
      <point x="164" y="710" type="line"/>
      <point x="596" y="710" type="line"/>
      <point x="818" y="224" type="line"/>
      <point x="714" y="196" type="line"/>
      <point x="843" y="600" type="line" smooth="yes"/>
      <point x="846" y="607"/>
      <point x="808" y="610"/>
      <point x="786" y="610" type="curve" smooth="yes"/>
      <point x="770" y="610" type="line"/>
      <point x="800" y="710" type="line"/>
      <point x="1070" y="710" type="line"/>
      <point x="1039" y="610" type="line"/>
      <point x="1029" y="610" type="line" smooth="yes"/>
      <point x="992" y="610"/>
      <point x="966" y="608"/>
      <point x="958" y="579" type="curve" smooth="yes"/>
      <point x="765" y="-48" type="line" smooth="yes"/>
      <point x="726" y="-185"/>
      <point x="627" y="-250"/>
    </contour>
  </outline>
</glyph>
<glyph name="uhorn" format="2">
  <advance width="1041"/>
  <unicode hex="01B0"/>
  <anchor x="503" y="572" name="top"/>
  <outline>
    <contour>
      <point x="122" y="572" type="line"/>
      <point x="94" y="476" type="line"/>
      <point x="103" y="474" type="line" smooth="yes"/>
      <point x="137" y="469"/>
      <point x="157" y="464"/>
      <point x="154" y="455" type="curve" smooth="yes"/>
      <point x="70" y="177" type="line" smooth="yes"/>
      <point x="61" y="149"/>
      <point x="54" y="114"/>
      <point x="54" y="82" type="curve" smooth="yes"/>
      <point x="54" y="25"/>
      <point x="103" y="-11"/>
      <point x="197" y="-11" type="curve" smooth="yes"/>
      <point x="347" y="-11"/>
      <point x="438" y="63"/>
      <point x="539" y="182" type="curve"/>
      <point x="551" y="269" type="line"/>
      <point x="466" y="183"/>
      <point x="406" y="125"/>
      <point x="357" y="125" type="curve" smooth="yes"/>
      <point x="336" y="125"/>
      <point x="327" y="133"/>
      <point x="327" y="146" type="curve" smooth="yes"/>
      <point x="327" y="159"/>
      <point x="332" y="177"/>
      <point x="340" y="198" type="curve" smooth="yes"/>
      <point x="455" y="572" type="line"/>
    </contour>
    <contour>
      <point x="884" y="575" type="line"/>
      <point x="738" y="464" type="line"/>
      <point x="976" y="471"/>
      <point x="1091" y="509"/>
      <point x="1145" y="758" type="curve"/>
      <point x="956" y="758" type="line"/>
      <point x="912" y="622"/>
      <point x="895" y="572"/>
      <point x="720" y="572" type="curve"/>
      <point x="619" y="572" type="line"/>
      <point x="495" y="161" type="line"/>
      <point x="509" y="156" type="line"/>
      <point x="508" y="128"/>
      <point x="508" y="110"/>
      <point x="508" y="97" type="curve" smooth="yes"/>
      <point x="508" y="35"/>
      <point x="559" y="0"/>
      <point x="644" y="0" type="curve" smooth="yes"/>
      <point x="699" y="0"/>
      <point x="752" y="0"/>
      <point x="807" y="0" type="curve"/>
      <point x="838" y="118" type="line"/>
      <point x="822" y="118"/>
      <point x="805" y="118"/>
      <point x="788" y="118" type="curve" smooth="yes"/>
      <point x="764" y="118"/>
      <point x="752" y="125"/>
      <point x="752" y="143" type="curve" smooth="yes"/>
      <point x="752" y="157"/>
      <point x="763" y="182"/>
      <point x="786" y="252" type="curve" smooth="yes"/>
    </contour>
  </outline>
</glyph>
<glyph name="oogonek" format="2">
  <advance width="863"/>
  <unicode hex="01EB"/>
  <outline>
    <contour>
      <point x="407" y="-252" type="curve" smooth="yes"/>
      <point x="509" y="-252"/>
      <point x="575" y="-228"/>
      <point x="625" y="-189" type="curve"/>
      <point x="582" y="-131" type="line"/>
      <point x="556" y="-147"/>
      <point x="519" y="-170"/>
      <point x="475" y="-170" type="curve" smooth="yes"/>
      <point x="437" y="-170"/>
      <point x="417" y="-158"/>
      <point x="417" y="-125" type="curve" smooth="yes"/>
      <point x="417" y="-48"/>
      <point x="578" y="-20"/>
      <point x="698" y="78" type="curve" smooth="yes"/>
      <point x="788" y="150"/>
      <point x="821" y="257"/>
      <point x="821" y="348" type="curve" smooth="yes"/>
      <point x="821" y="504"/>
      <point x="683" y="584"/>
      <point x="479" y="584" type="curve" smooth="yes"/>
      <point x="138" y="584"/>
      <point x="42" y="380"/>
      <point x="42" y="221" type="curve" smooth="yes"/>
      <point x="42" y="64"/>
      <point x="180" y="-15"/>
      <point x="385" y="-15" type="curve" smooth="yes"/>
      <point x="449" y="-15"/>
      <point x="503" y="-8"/>
      <point x="551" y="4" type="curve"/>
      <point x="533" y="21" type="line"/>
      <point x="251" y="-51"/>
      <point x="195" y="-84"/>
      <point x="195" y="-147" type="curve" smooth="yes"/>
      <point x="195" y="-222"/>
      <point x="268" y="-252"/>
    </contour>
    <contour>
      <point x="391" y="91" type="curve" smooth="yes"/>
      <point x="314" y="91"/>
      <point x="293" y="119"/>
      <point x="293" y="152" type="curve" smooth="yes"/>
      <point x="293" y="194"/>
      <point x="306" y="252"/>
      <point x="327" y="315" type="curve" smooth="yes"/>
      <point x="355" y="401"/>
      <point x="381" y="478"/>
      <point x="472" y="478" type="curve" smooth="yes"/>
      <point x="549" y="478"/>
      <point x="570" y="450"/>
      <point x="570" y="417" type="curve" smooth="yes"/>
      <point x="570" y="375"/>
      <point x="558" y="317"/>
      <point x="537" y="254" type="curve" smooth="yes"/>
      <point x="508" y="168"/>
      <point x="482" y="91"/>
    </contour>
  </outline>
</glyph>
<glyph name="schwa" format="2">
  <advance width="806"/>
  <unicode hex="0259"/>
  <outline>
    <contour>
      <point x="432" y="584" type="curve" smooth="yes"/>
      <point x="263" y="584"/>
      <point x="149" y="523"/>
      <point x="73" y="430" type="curve"/>
      <point x="167" y="363" type="line"/>
      <point x="210" y="409"/>
      <point x="287" y="465"/>
      <point x="378" y="465" type="curve" smooth="yes"/>
      <point x="474" y="465"/>
      <point x="509" y="433"/>
      <point x="509" y="333" type="curve" smooth="yes"/>
      <point x="509" y="200"/>
      <point x="446" y="91"/>
      <point x="328" y="91" type="curve" smooth="yes"/>
      <point x="278" y="91"/>
      <point x="259" y="112"/>
      <point x="259" y="153" type="curve" smooth="yes"/>
      <point x="259" y="253"/>
      <point x="368" y="266"/>
      <point x="569" y="271" type="curve"/>
      <point x="564" y="353" type="line"/>
      <point x="238" y="346"/>
      <point x="33" y="295"/>
      <point x="33" y="142" type="curve" smooth="yes"/>
      <point x="33" y="58"/>
      <point x="115" y="-15"/>
      <point x="303" y="-15" type="curve" smooth="yes"/>
      <point x="588" y="-15"/>
      <point x="764" y="146"/>
      <point x="764" y="351" type="curve" smooth="yes"/>
      <point x="764" y="497"/>
      <point x="641" y="584"/>
    </contour>
  </outline>
</glyph>
<glyph name="circumflex" format="2">
  <advance width="613"/>
  <unicode hex="02C6"/>
  <anchor x="296" y="529" name="_top"/>
  <outline>
    <contour>
      <point x="429" y="870" type="line"/>
      <point x="550" y="671" type="line"/>
      <point x="535" y="618" type="line"/>
      <point x="459" y="618" type="line"/>
      <point x="277" y="727" type="line"/>
      <point x="337" y="729" type="line"/>
      <point x="96" y="618" type="line"/>
      <point x="3" y="618" type="line"/>
      <point x="19" y="671" type="line"/>
      <point x="256" y="870" type="line"/>
    </contour>
  </outline>
</glyph>
<glyph name="breve" format="2">
  <advance width="613"/>
  <unicode hex="02D8"/>
  <anchor x="313" y="517" name="_top"/>
  <outline>
    <contour>
      <point x="322" y="621" type="curve" smooth="yes"/>
      <point x="478" y="621"/>
      <point x="580" y="664"/>
      <point x="597" y="843" type="curve"/>
      <point x="470" y="843" type="line"/>
      <point x="451" y="778"/>
      <point x="430" y="768"/>
      <point x="325" y="768" type="curve" smooth="yes"/>
      <point x="231" y="768"/>
      <point x="218" y="785"/>
      <point x="224" y="843" type="curve"/>
      <point x="97" y="843" type="line"/>
      <point x="89" y="817"/>
      <point x="86" y="788"/>
      <point x="86" y="767" type="curve" smooth="yes"/>
      <point x="86" y="671"/>
      <point x="160" y="621"/>
    </contour>
  </outline>
</glyph>
<glyph name="pi" format="2">
  <advance width="1034"/>
  <unicode hex="03C0"/>
  <outline>
    <contour>
      <point x="378" y="0" type="line"/>
      <point x="515" y="440" type="line"/>
      <point x="378" y="440" type="line"/>
      <point x="283" y="170"/>
      <point x="209" y="184"/>
      <point x="153" y="0" type="curve"/>
    </contour>
    <contour>
      <point x="985" y="396" type="line"/>
      <point x="1023" y="532" type="line"/>
      <point x="404" y="532" type="line" smooth="yes"/>
      <point x="167" y="532"/>
      <point x="87" y="427"/>
      <point x="40" y="282" type="curve"/>
      <point x="143" y="262" type="line"/>
      <point x="178" y="352"/>
      <point x="224" y="396"/>
      <point x="340" y="396" type="curve" smooth="yes"/>
    </contour>
    <contour>
      <point x="824" y="440" type="line"/>
      <point x="687" y="440" type="line"/>
      <point x="602" y="204"/>
      <point x="529" y="193"/>
      <point x="529" y="99" type="curve" smooth="yes"/>
      <point x="529" y="30"/>
      <point x="586" y="-10"/>
      <point x="705" y="-10" type="curve" smooth="yes"/>
      <point x="825" y="-10"/>
      <point x="894" y="38"/>
      <point x="947" y="173" type="curve"/>
      <point x="856" y="205" type="line"/>
      <point x="830" y="159"/>
      <point x="811" y="128"/>
      <point x="770" y="128" type="curve" smooth="yes"/>
      <point x="746" y="128"/>
      <point x="733" y="136"/>
      <point x="733" y="152" type="curve"/>
      <point x="733" y="164"/>
      <point x="735" y="171"/>
      <point x="742" y="195" type="curve" smooth="yes"/>
    </contour>
  </outline>
</glyph>
<glyph name="endash" format="2">
  <advance width="835"/>
  <unicode hex="2013"/>
  <outline>
    <contour>
      <point x="109" y="384" type="line"/>
      <point x="71" y="247" type="line"/>
      <point x="734" y="247" type="line"/>
      <point x="772" y="384" type="line"/>
    </contour>
  </outline>
</glyph>
<glyph name="guarani" format="2">
  <advance width="686"/>
  <unicode hex="20B2"/>
  <outline>
    <contour>
      <point x="445" y="790" type="line"/>
      <point x="408" y="669" type="line"/>
      <point x="445" y="659" type="line"/>
      <point x="260" y="50" type="line"/>
      <point x="216" y="39" type="line"/>
      <point x="168" y="-120" type="line"/>
      <point x="303" y="-120" type="line"/>
      <point x="350" y="40" type="line"/>
      <point x="314" y="50" type="line"/>
      <point x="499" y="655" type="line"/>
      <point x="544" y="673" type="line"/>
      <point x="579" y="790" type="line"/>
    </contour>
    <contour>
      <point x="321" y="10" type="curve" smooth="yes"/>
      <point x="439" y="10"/>
      <point x="530" y="52"/>
      <point x="573" y="73" type="curve"/>
      <point x="620" y="223" type="line" smooth="yes"/>
      <point x="628" y="252"/>
      <point x="643" y="259"/>
      <point x="662" y="259" type="curve" smooth="yes"/>
      <point x="667" y="259" type="line"/>
      <point x="694" y="353" type="line"/>
      <point x="466" y="353" type="line"/>
      <point x="439" y="259" type="line"/>
      <point x="439" y="259" type="line"/>
      <point x="439" y="259"/>
      <point x="437" y="252"/>
      <point x="428" y="223" type="curve" smooth="yes"/>
      <point x="390" y="105" type="line"/>
      <point x="374" y="98"/>
      <point x="358" y="94"/>
      <point x="333" y="94" type="curve" smooth="yes"/>
      <point x="271" y="94"/>
      <point x="231" y="120"/>
      <point x="231" y="181" type="curve" smooth="yes"/>
      <point x="231" y="232"/>
      <point x="241" y="294"/>
      <point x="267" y="385" type="curve" smooth="yes"/>
      <point x="314" y="552"/>
      <point x="343" y="616"/>
      <point x="476" y="616" type="curve" smooth="yes"/>
      <point x="568" y="616"/>
      <point x="599" y="598"/>
      <point x="627" y="550" type="curve"/>
      <point x="627" y="570"/>
      <point x="605" y="639"/>
      <point x="573" y="656" type="curve"/>
      <point x="522" y="490" type="line"/>
      <point x="709" y="490" type="line"/>
      <point x="755" y="642" type="line"/>
      <point x="720" y="665"/>
      <point x="631" y="700"/>
      <point x="469" y="700" type="curve" smooth="yes"/>
      <point x="118" y="700"/>
      <point x="12" y="443"/>
      <point x="12" y="251" type="curve" smooth="yes"/>
      <point x="12" y="106"/>
      <point x="104" y="10"/>
    </contour>
  </outline>
</glyph>
<glyph name="product" format="2">
  <advance width="1013"/>
  <unicode hex="220F"/>
  <outline>
    <contour>
      <point x="522" y="617" type="line" smooth="yes"/>
      <point x="497" y="617"/>
      <point x="465" y="614"/>
      <point x="462" y="607" type="curve" smooth="yes"/>
      <point x="236" y="-124" type="line" smooth="yes"/>
      <point x="234" y="-131"/>
      <point x="261" y="-134"/>
      <point x="285" y="-134" type="curve" smooth="yes"/>
      <point x="295" y="-134" type="line"/>
      <point x="265" y="-234" type="line"/>
      <point x="-119" y="-234" type="line"/>
      <point x="-89" y="-134" type="line"/>
      <point x="-76" y="-134" type="line" smooth="yes"/>
      <point x="-40" y="-134"/>
      <point x="-12" y="-127"/>
      <point x="-4" y="-98" type="curve" smooth="yes"/>
      <point x="204" y="574" type="line" smooth="yes"/>
      <point x="214" y="603"/>
      <point x="189" y="610"/>
      <point x="153" y="610" type="curve" smooth="yes"/>
      <point x="140" y="610" type="line"/>
      <point x="168" y="710" type="line"/>
      <point x="1059" y="710" type="line"/>
      <point x="1030" y="610" type="line"/>
      <point x="1017" y="610" type="line" smooth="yes"/>
      <point x="981" y="610"/>
      <point x="953" y="603"/>
      <point x="943" y="574" type="curve" smooth="yes"/>
      <point x="736" y="-98" type="line"/>
      <point x="727" y="-127"/>
      <point x="753" y="-134"/>
      <point x="788" y="-134" type="curve" smooth="yes"/>
      <point x="801" y="-134" type="line"/>
      <point x="772" y="-234" type="line"/>
      <point x="387" y="-234" type="line"/>
      <point x="417" y="-134" type="line"/>
      <point x="427" y="-134" type="line" smooth="yes"/>
      <point x="451" y="-134"/>
      <point x="478" y="-131"/>
      <point x="481" y="-124" type="curve" smooth="yes"/>
      <point x="707" y="607" type="line" smooth="yes"/>
      <point x="709" y="614"/>
      <point x="678" y="617"/>
      <point x="653" y="617" type="curve" smooth="yes"/>
    </contour>
  </outline>
</glyph>
<glyph name="summation" format="2">
  <advance width="717"/>
  <unicode hex="2211"/>
  <outline>
    <contour>
      <point x="-154" y="-223" type="line"/>
      <point x="-113" y="-76" type="line"/>
      <point x="339" y="310" type="line"/>
      <point x="276" y="129" type="line"/>
      <point x="79" y="561" type="line"/>
      <point x="121" y="710" type="line"/>
      <point x="762" y="710" type="line"/>
      <point x="698" y="486" type="line"/>
      <point x="569" y="486" type="line"/>
      <point x="576" y="556" type="line" smooth="yes"/>
      <point x="579" y="592"/>
      <point x="543" y="601"/>
      <point x="474" y="601" type="curve" smooth="yes"/>
      <point x="188" y="601" type="line"/>
      <point x="284" y="674" type="line"/>
      <point x="446" y="319" type="line"/>
      <point x="417" y="219" type="line"/>
      <point x="-5" y="-149" type="line"/>
      <point x="-33" y="-109" type="line"/>
      <point x="301" y="-109" type="line"/>
      <point x="371" y="-109"/>
      <point x="416" y="-96"/>
      <point x="435" y="-49" type="curve" smooth="yes"/>
      <point x="475" y="38" type="line"/>
      <point x="604" y="38" type="line"/>
      <point x="530" y="-223" type="line"/>
    </contour>
  </outline>
</glyph>
<glyph name="integral" format="2">
  <advance width="649"/>
  <unicode hex="222B"/>
  <outline>
    <contour>
      <point x="445" y="576" type="line" smooth="yes"/>
      <point x="459" y="628"/>
      <point x="478" y="646"/>
      <point x="534" y="646" type="curve" smooth="yes"/>
      <point x="561" y="646"/>
      <point x="595" y="641"/>
      <point x="612" y="630" type="curve"/>
      <point x="624" y="641"/>
      <point x="596" y="657"/>
      <point x="578" y="657" type="curve"/>
      <point x="553" y="538" type="line"/>
      <point x="701" y="538" type="line"/>
      <point x="736" y="701" type="line"/>
      <point x="708" y="713"/>
      <point x="642" y="737"/>
      <point x="526" y="737" type="curve" smooth="yes"/>
      <point x="368" y="737"/>
      <point x="272" y="692"/>
      <point x="245" y="585" type="curve" smooth="yes"/>
      <point x="78" y="-90" type="line" smooth="yes"/>
      <point x="64" y="-143"/>
      <point x="45" y="-161"/>
      <point x="-10" y="-161" type="curve" smooth="yes"/>
      <point x="-38" y="-161"/>
      <point x="-71" y="-156"/>
      <point x="-88" y="-145" type="curve"/>
      <point x="-100" y="-156"/>
      <point x="-73" y="-171"/>
      <point x="-54" y="-171" type="curve"/>
      <point x="-30" y="-53" type="line"/>
      <point x="-177" y="-53" type="line"/>
      <point x="-212" y="-216" type="line"/>
      <point x="-184" y="-227"/>
      <point x="-118" y="-251"/>
      <point x="-2" y="-251" type="curve" smooth="yes"/>
      <point x="155" y="-251"/>
      <point x="252" y="-205"/>
      <point x="279" y="-100" type="curve" smooth="yes"/>
    </contour>
  </outline>
</glyph>
<glyph name="notequal" format="2">
  <advance width="686"/>
  <unicode hex="2260"/>
  <outline>
    <contour>
      <point x="564" y="639" type="line"/>
      <point x="-11" y="-1" type="line"/>
      <point x="122" y="-1" type="line"/>
      <point x="697" y="639" type="line"/>
    </contour>
    <component base="equal"/>
  </outline>
</glyph>
<glyph name="zero.den" format="2">
  <advance width="600"/>
  <unicode hex="E402"/>
  <outline>
    <contour>
      <point x="330" y="205" type="curve" smooth="yes"/>
      <point x="298" y="107"/>
      <point x="278" y="72"/>
      <point x="238" y="72" type="curve" smooth="yes"/>
      <point x="209" y="72"/>
      <point x="199" y="84"/>
      <point x="199" y="106" type="curve" smooth="yes"/>
      <point x="199" y="132"/>
      <point x="207" y="171"/>
      <point x="223" y="222" type="curve" smooth="yes"/>
      <point x="255" y="320"/>
      <point x="274" y="355"/>
      <point x="314" y="355" type="curve" smooth="yes"/>
      <point x="344" y="355"/>
      <point x="353" y="344"/>
      <point x="353" y="321" type="curve" smooth="yes"/>
      <point x="353" y="295"/>
      <point x="346" y="256"/>
    </contour>
    <contour>
      <point x="546" y="255" type="curve" smooth="yes"/>
      <point x="546" y="367"/>
      <point x="458" y="432"/>
      <point x="303" y="432" type="curve"/>
      <point x="105" y="432"/>
      <point x="6" y="306"/>
      <point x="6" y="172" type="curve" smooth="yes"/>
      <point x="6" y="60"/>
      <point x="94" y="-5"/>
      <point x="250" y="-5" type="curve"/>
      <point x="448" y="-5"/>
      <point x="546" y="121"/>
    </contour>
  </outline>
</glyph>
<glyph name="two.den" format="2">
  <advance width="592"/>
  <unicode hex="E404"/>
  <outline>
    <contour>
      <point x="290" y="100" type="line" smooth="yes"/>
      <point x="358" y="100"/>
      <point x="383" y="104"/>
      <point x="397" y="130" type="curve" smooth="yes"/>
      <point x="412" y="154" type="line"/>
      <point x="508" y="154" type="line"/>
      <point x="461" y="0" type="line"/>
      <point x="-30" y="0" type="line"/>
      <point x="7" y="126" type="line"/>
      <point x="242" y="207"/>
      <point x="342" y="240"/>
      <point x="342" y="319" type="curve" smooth="yes"/>
      <point x="342" y="354"/>
      <point x="326" y="368"/>
      <point x="282" y="368" type="curve" smooth="yes"/>
      <point x="245" y="368"/>
      <point x="198" y="350"/>
      <point x="163" y="334" type="curve"/>
      <point x="172" y="358"/>
      <point x="220" y="383"/>
      <point x="244" y="385" type="curve"/>
      <point x="211" y="273" type="line"/>
      <point x="65" y="273" type="line"/>
      <point x="101" y="393" type="line"/>
      <point x="144" y="413"/>
      <point x="231" y="431"/>
      <point x="309" y="431" type="curve" smooth="yes"/>
      <point x="461" y="431"/>
      <point x="529" y="390"/>
      <point x="529" y="319" type="curve" smooth="yes"/>
      <point x="529" y="167"/>
      <point x="333" y="179"/>
      <point x="38" y="86" type="curve"/>
      <point x="34" y="88"/>
      <point x="34" y="97"/>
      <point x="41" y="100" type="curve"/>
    </contour>
  </outline>
</glyph>
<glyph name="Euro.proportional" format="2">
  <advance width="906"/>
  <outline>
    <contour>
      <point x="500" y="-25" type="curve" smooth="yes"/>
      <point x="669" y="-25"/>
      <point x="763" y="33"/>
      <point x="834" y="151" type="curve"/>
      <point x="725" y="204" type="line"/>
      <point x="677" y="135"/>
      <point x="629" y="85"/>
      <point x="533" y="85" type="curve" smooth="yes"/>
      <point x="447" y="85"/>
      <point x="411" y="119"/>
      <point x="411" y="187" type="curve" smooth="yes"/>
      <point x="411" y="238"/>
      <point x="415" y="292"/>
      <point x="440" y="388" type="curve" smooth="yes"/>
      <point x="491" y="575"/>
      <point x="538" y="638"/>
      <point x="665" y="638" type="curve" smooth="yes"/>
      <point x="754" y="638"/>
      <point x="792" y="611"/>
      <point x="813" y="589" type="curve"/>
      <point x="836" y="588"/>
      <point x="737" y="671"/>
      <point x="735" y="671" type="curve"/>
      <point x="696" y="540" type="line"/>
      <point x="893" y="540" type="line"/>
      <point x="936" y="681" type="line"/>
      <point x="908" y="698"/>
      <point x="823" y="735"/>
      <point x="664" y="735" type="curve" smooth="yes"/>
      <point x="274" y="735"/>
      <point x="140" y="520"/>
      <point x="140" y="244" type="curve" smooth="yes"/>
      <point x="140" y="77"/>
      <point x="249" y="-25"/>
    </contour>
    <contour>
      <point x="26" y="301" type="line"/>
      <point x="1" y="215" type="line"/>
      <point x="608" y="215" type="line"/>
      <point x="633" y="301" type="line"/>
    </contour>
    <contour>
      <point x="79" y="471" type="line"/>
      <point x="54" y="385" type="line"/>
      <point x="697" y="385" type="line"/>
      <point x="723" y="471" type="line"/>
    </contour>
  </outline>
</glyph>
<glyph name="breve.uc" format="2">
  <advance width="613"/>
  <anchor x="311" y="694" name="_top"/>
  <outline>
    <contour>
      <point x="313" y="781" type="curve" smooth="yes"/>
      <point x="138" y="781"/>
      <point x="60" y="829"/>
      <point x="60" y="926" type="curve" smooth="yes"/>
      <point x="60" y="947"/>
      <point x="64" y="975"/>
      <point x="71" y="1002" type="curve"/>
      <point x="203" y="1002" type="line"/>
      <point x="196" y="945"/>
      <point x="210" y="927"/>
      <point x="317" y="927" type="curve" smooth="yes"/>
      <point x="432" y="927"/>
      <point x="454" y="937"/>
      <point x="473" y="1002" type="curve"/>
      <point x="605" y="1002" type="line"/>
      <point x="598" y="827"/>
      <point x="482" y="781"/>
    </contour>
  </outline>
</glyph>
<glyph name="cent.proportional" format="2">
  <advance width="836"/>
  <outline>
    <contour>
      <point x="511" y="703" type="line"/>
      <point x="464" y="546" type="line"/>
      <point x="491" y="534" type="line"/>
      <point x="337" y="28" type="line"/>
      <point x="301" y="11" type="line"/>
      <point x="247" y="-166" type="line"/>
      <point x="382" y="-166" type="line"/>
      <point x="438" y="20" type="line"/>
      <point x="411" y="33" type="line"/>
      <point x="565" y="536" type="line"/>
      <point x="601" y="555" type="line"/>
      <point x="646" y="703" type="line"/>
    </contour>
    <contour>
      <point x="502" y="583" type="curve" smooth="yes"/>
      <point x="218" y="583"/>
      <point x="34" y="449"/>
      <point x="34" y="253" type="curve" smooth="yes"/>
      <point x="34" y="88"/>
      <point x="184" y="-12"/>
      <point x="423" y="-12" type="curve" smooth="yes"/>
      <point x="577" y="-12"/>
      <point x="671" y="39"/>
      <point x="745" y="150" type="curve"/>
      <point x="646" y="199" type="line"/>
      <point x="597" y="133"/>
      <point x="549" y="81"/>
      <point x="432" y="81" type="curve" smooth="yes"/>
      <point x="305" y="81"/>
      <point x="278" y="123"/>
      <point x="278" y="220" type="curve" smooth="yes"/>
      <point x="278" y="331"/>
      <point x="312" y="494"/>
      <point x="502" y="494" type="curve" smooth="yes"/>
      <point x="616" y="494"/>
      <point x="668" y="472"/>
      <point x="708" y="451" type="curve"/>
      <point x="697" y="469"/>
      <point x="713" y="531"/>
      <point x="668" y="530" type="curve"/>
      <point x="612" y="343" type="line"/>
      <point x="787" y="343" type="line"/>
      <point x="837" y="507" type="line"/>
      <point x="807" y="534"/>
      <point x="682" y="583"/>
    </contour>
  </outline>
</glyph>
<glyph name="dollar.alt" format="2">
  <advance width="686"/>
  <outline>
    <contour>
      <point x="289" y="14" type="curve" smooth="yes"/>
      <point x="491" y="14"/>
      <point x="632" y="86"/>
      <point x="632" y="276" type="curve" smooth="yes"/>
      <point x="632" y="375"/>
      <point x="554" y="413"/>
      <point x="404" y="472" type="curve" smooth="yes"/>
      <point x="328" y="498"/>
      <point x="277" y="513"/>
      <point x="277" y="548" type="curve" smooth="yes"/>
      <point x="277" y="585"/>
      <point x="317" y="602"/>
      <point x="412" y="602" type="curve" smooth="yes"/>
      <point x="530" y="602"/>
      <point x="588" y="575"/>
      <point x="618" y="559" type="curve"/>
      <point x="606" y="579"/>
      <point x="571" y="612"/>
      <point x="530" y="622" type="curve"/>
      <point x="496" y="520" type="line"/>
      <point x="665" y="520" type="line"/>
      <point x="703" y="639" type="line"/>
      <point x="660" y="667"/>
      <point x="552" y="697"/>
      <point x="412" y="697" type="curve" smooth="yes"/>
      <point x="191" y="697"/>
      <point x="92" y="597"/>
      <point x="92" y="468" type="curve" smooth="yes"/>
      <point x="92" y="351"/>
      <point x="166" y="317"/>
      <point x="286" y="270" type="curve" smooth="yes"/>
      <point x="387" y="230"/>
      <point x="441" y="225"/>
      <point x="441" y="178" type="curve" smooth="yes"/>
      <point x="441" y="134"/>
      <point x="403" y="109"/>
      <point x="297" y="109" type="curve" smooth="yes"/>
      <point x="163" y="109"/>
      <point x="96" y="144"/>
      <point x="59" y="173" type="curve"/>
      <point x="59" y="150"/>
      <point x="111" y="95"/>
      <point x="153" y="95" type="curve"/>
      <point x="192" y="219" type="line"/>
      <point x="15" y="219" type="line"/>
      <point x="-26" y="88" type="line"/>
      <point x="29" y="51"/>
      <point x="117" y="14"/>
    </contour>
    <contour>
      <point x="140" y="-117" type="line"/>
      <point x="265" y="-117" type="line"/>
      <point x="318" y="63" type="line"/>
      <point x="193" y="64" type="line"/>
    </contour>
    <contour>
      <point x="502" y="651" type="line"/>
      <point x="543" y="787" type="line"/>
      <point x="418" y="787" type="line"/>
      <point x="375" y="642" type="line"/>
    </contour>
  </outline>
</glyph>
<glyph name="five.oldtab" format="2">
  <advance width="686"/>
  <outline>
    <contour>
      <point x="240" y="-93" type="curve" smooth="yes"/>
      <point x="495" y="-93"/>
      <point x="608" y="40"/>
      <point x="608" y="214" type="curve" smooth="yes"/>
      <point x="608" y="329"/>
      <point x="525" y="391"/>
      <point x="391" y="391" type="curve" smooth="yes"/>
      <point x="279" y="391"/>
      <point x="217" y="343"/>
      <point x="174" y="277" type="curve"/>
      <point x="204" y="299" type="line"/>
      <point x="305" y="625" type="line"/>
      <point x="240" y="482" type="line"/>
      <point x="606" y="482" type="line"/>
      <point x="674" y="645" type="line"/>
      <point x="192" y="645" type="line"/>
      <point x="62" y="214" type="line"/>
      <point x="171" y="214" type="line"/>
      <point x="200" y="260"/>
      <point x="232" y="287"/>
      <point x="288" y="287" type="curve" smooth="yes"/>
      <point x="345" y="287"/>
      <point x="364" y="265"/>
      <point x="364" y="222" type="curve" smooth="yes"/>
      <point x="364" y="169"/>
      <point x="338" y="12"/>
      <point x="219" y="12" type="curve" smooth="yes"/>
      <point x="116" y="12"/>
      <point x="99" y="64"/>
      <point x="85" y="110" type="curve"/>
      <point x="-54" y="87" type="line"/>
      <point x="-31" y="-27"/>
      <point x="45" y="-93"/>
    </contour>
  </outline>
</glyph>
<glyph name="horn" format="2">
  <advance width="613"/>
  <anchor x="326" y="444" name="_top"/>
  <outline>
    <contour>
      <point x="225" y="468" type="line"/>
      <point x="447" y="467"/>
      <point x="550" y="541"/>
      <point x="554" y="751" type="curve"/>
      <point x="365" y="751" type="line"/>
      <point x="353" y="619"/>
      <point x="341" y="572"/>
      <point x="182" y="572" type="curve"/>
    </contour>
  </outline>
</glyph>
<glyph name="tilde.uc" format="2">
  <advance width="613"/>
  <anchor x="306" y="694" name="_top"/>
  <outline>
    <contour>
      <point x="395" y="768" type="curve" smooth="yes"/>
      <point x="493" y="768"/>
      <point x="553" y="819"/>
      <point x="611" y="983" type="curve"/>
      <point x="504" y="1012" type="line"/>
      <point x="471" y="947"/>
      <point x="456" y="916"/>
      <point x="420" y="916" type="curve" smooth="yes"/>
      <point x="343" y="916"/>
      <point x="355" y="1005"/>
      <point x="218" y="1005" type="curve" smooth="yes"/>
      <point x="111" y="1005"/>
      <point x="57" y="947"/>
      <point x="1" y="797" type="curve"/>
      <point x="108" y="767" type="line"/>
      <point x="138" y="826"/>
      <point x="151" y="859"/>
      <point x="189" y="859" type="curve" smooth="yes"/>
      <point x="259" y="859"/>
      <point x="245" y="768"/>
    </contour>
  </outline>
</glyph>
